<?xml version="1.0" encoding="iso-8859-1"?>
<!-- Generator: Adobe Illustrator 19.0.0, SVG Export Plug-In . SVG Version: 6.00 Build 0)  -->
<svg version="1.1" id="Capa_1" xmlns="http://www.w3.org/2000/svg" xmlns:xlink="http://www.w3.org/1999/xlink" x="0px" y="0px"
	 viewBox="0 0 512 512" style="enable-background:new 0 0 512 512;" xml:space="preserve">
	 <path d="m484.847656 243.015625v-16.414063c0-60.285156-23.636718-117.121093-66.558594-160.042968-42.917968-42.921875-99.757812-66.558594-160.042968-66.558594-117.925782 0-217.183594 92.101562-225.96875 209.679688-.3125 4.15625 2.804687 7.773437 6.960937 8.082031 4.167969.316406 7.769531-2.804688 8.082031-6.957031 8.199219-109.75 100.851563-195.71875 210.925782-195.71875 56.257812 0 109.308594 22.066406 149.378906 62.136718 40.070312 40.070313 62.140625 93.121094 62.140625 149.378906v7.296876c-6.058594-2.695313-12.558594-4.570313-19.359375-5.476563v-1.820313c0-43.582031-14.328125-84.671874-41.429688-118.824218-2.585937-3.265625-7.332031-3.8125-10.597656-1.222656-3.261718 2.589843-3.808594 7.335937-1.21875 10.597656 24.964844 31.457031 38.160156 69.304687 38.160156 109.449218v1.171876h-18.984374v-6.972657c0-12.476562-10.148438-22.628906-22.625-22.628906h-12.871094c-12.476563 0-22.625 10.152344-22.625 22.628906v152.210938c0 12.476562 10.148437 22.625 22.625 22.625h12.871094c12.476562 0 22.625-10.148438 22.625-22.625v-3.15625h24.625c39.171874 0 71.039062-31.867188 71.039062-71.042969 0-22.609375-10.636719-42.777344-27.152344-55.796875zm-83.59375 129.996094c0 4.160156-3.382812 7.542969-7.542968 7.542969h-12.871094c-4.160156 0-7.542969-3.382813-7.542969-7.542969v-152.210938c0-4.160156 3.382813-7.542969 7.542969-7.542969h12.871094c4.160156 0 7.542968 3.382813 7.542968 7.542969zm39.707032-18.238281h-24.449219v-111.914063h24.449219c30.855468 0 55.957031 25.101563 55.957031 55.957031-.003907 30.855469-25.101563 55.957032-55.957031 55.957032zm0 0"/><path d="m302.902344 434.984375h-70.09375c-11.667969 0-21.296875 8.875-22.5 20.226563h-82.777344c-30.9375 0-56.109375-25.167969-56.109375-56.109376v-29.242187h24.242187v3.152344c0 12.476562 10.148438 22.628906 22.625 22.628906h12.871094c12.476563 0 22.625-10.152344 22.625-22.628906v-97.789063c0-4.167968-3.375-7.542968-7.542968-7.542968-4.164063 0-7.539063 3.375-7.539063 7.542968v97.789063c0 4.160156-3.382813 7.542969-7.542969 7.542969h-12.871094c-4.160156 0-7.542968-3.382813-7.542968-7.542969v-152.210938c0-4.160156 3.382812-7.542969 7.542968-7.542969h12.871094c4.160156 0 7.542969 3.382813 7.542969 7.542969v24.25c0 4.167969 3.375 7.542969 7.539063 7.542969 4.167968 0 7.542968-3.375 7.542968-7.542969v-24.25c0-12.476562-10.148437-22.625-22.625-22.625h-12.871094c-12.476562 0-22.625 10.148438-22.625 22.625v6.976563h-14.492187v-1.175782c0-47.054687 18.488281-91.453124 52.054687-125.019531 33.5625-33.566406 77.964844-52.050781 125.019532-52.050781 44.667968 0 87.382812 16.855469 120.273437 47.46875 3.050781 2.835938 7.820313 2.664062 10.660157-.382812 2.839843-3.050782 2.667968-7.820313-.382813-10.660157-35.691406-33.21875-82.054687-51.511719-130.550781-51.511719-51.082032 0-99.273438 20.054688-135.6875 56.46875-36.414063 36.414063-56.46875 84.605469-56.46875 135.6875v1.367188c-36.867188 2.550781-66.089844 33.34375-66.089844 70.847656 0 34.132813 24.199219 62.710938 56.335938 69.5v30.785156c0 39.257813 31.9375 71.195313 71.195312 71.195313h82.648438v2.023437c0 12.476563 10.152343 22.625 22.628906 22.625h70.09375c12.472656 0 22.625-10.148437 22.625-22.625v-14.710937c0-12.476563-10.148438-22.625-22.625-22.625zm-287.816406-136.167969c0-30.855468 25.101562-55.957031 55.953124-55.957031h24.449219v111.914063h-24.449219c-30.851562 0-55.953124-25.101563-55.953124-55.957032zm295.359374 173.503906c0 4.160157-3.382812 7.542969-7.542968 7.542969h-70.09375c-4.160156 0-7.542969-3.382812-7.542969-7.542969v-14.710937c0-4.160156 3.382813-7.542969 7.542969-7.542969h70.09375c4.160156 0 7.542968 3.382813 7.542968 7.542969zm0 0"/>
</svg>