<svg xmlns="http://www.w3.org/2000/svg" xmlns:xlink="http://www.w3.org/1999/xlink" width="83" height="23" viewBox="0 0 186 53">
  <defs>
    <polygon id="a" points="0 52.291 185.788 52.291 185.788 .202 0 .202"/>
  </defs>
  <g fill="none" fill-rule="evenodd">
    <polygon fill="#00B140" points="81.664 .67 81.664 10.927 0 10.927 0 42.504 81.664 42.504 81.664 52.76 117.252 26.715"/>
    <g transform="translate(0 .469)">
      <path fill="#00B140" d="M126.18795 31.0622105L129.643012 31.0622105C130.319687 31.0622105 130.874427 30.9274602 131.307901 30.6472333 131.739365 30.3723697 131.955097 29.8890118 131.955097 29.2132494 131.955097 28.4865367 131.732665 27.9797148 131.281772 27.6968064 130.835568 27.4078643 130.289538 27.2690917 129.643012 27.2690917L126.18795 27.2690917 126.18795 31.0622105zM126.18795 24.4889461L129.523757 24.4889461C129.70867 24.4889461 129.906313 24.4574373 130.115345 24.4051462 130.325047 24.3488327 130.50661 24.2650328 130.682144 24.1383273 130.848298 24.0176555 130.995022 23.854078 131.112938 23.6549695 131.226834 23.4504977 131.281772 23.2071428 131.281772 22.9155191 131.281772 22.3088078 131.102218 21.8924899 130.738422 21.6612022 130.377305 21.4305849 129.9713 21.3179578 129.523757 21.3179578L126.18795 21.3179578 126.18795 24.4889461zM121.88671 17.9786993L129.615543 17.9786993C130.327727 17.9673025 131.037901 18.0155712 131.747404 18.1154607 132.458918 18.226747 133.097404 18.4385931 133.669563 18.7449656 134.242392 19.0540196 134.701995 19.4810639 135.057752 20.0160425 135.412839 20.5597363 135.590382 21.2629851 135.590382 22.1244481 135.590382 22.863228 135.39006 23.5269232 134.990084 24.1054778 134.584079 24.6853731 134.062169 25.1358814 133.414303 25.4596842 134.29532 25.7238215 134.990084 26.2031569 135.496586 26.9104281 136.008447 27.6083137 136.263707 28.4302231 136.263707 29.3768268 136.263707 30.3643249 136.093533 31.1828823 135.754526 31.8412144 135.412839 32.4975352 134.955916 33.0237986 134.373707 33.4153117 133.796189 33.8081657 133.113484 34.0897333 132.324253 34.2633667 131.536362 34.4296258 130.702913 34.5187889 129.823906 34.5187889L121.88671 34.5187889 121.88671 17.9786993zM142.408653 28.3596971L146.159174 28.3596971 144.330811 22.5681183 144.289273 22.5681183 142.408653 28.3596971zM142.132623 17.9792356L146.508231 17.9792356 152.687412 34.5193252 148.195228 34.5193252 147.178206 31.5548198 141.413069 31.5548198 140.375278 34.5193252 135.950762 34.5193252 142.132623 17.9792356z"/>
      <polygon fill="#00B140" points="153.459 17.979 157.878 17.979 163.617 28.172 163.666 28.172 163.666 17.979 167.717 17.979 167.717 34.519 163.293 34.519 157.554 24.21 157.509 24.21 157.509 34.519 153.459 34.519"/>
      <polygon fill="#00B140" points="169.934 17.979 174.241 17.979 174.241 24.326 179.677 17.979 185.022 17.979 178.913 24.489 185.788 34.519 180.439 34.519 175.998 27.569 174.241 29.417 174.241 34.519 169.934 34.519"/>
      <path fill="#FFFFFF" d="M33.1689975,34.5137609 L30.3926203,34.5137609 L30.1360199,32.7083758 C29.86066,33.1072633 29.5343821,33.4478261 29.1545062,33.7166562 C28.7786501,33.9874975 28.3813548,34.2073884 27.9746799,34.3736474 C27.566665,34.5466104 27.1539603,34.6692935 26.7358958,34.7470598 C26.3164913,34.8254965 25.9165161,34.8623685 25.5346303,34.8623685 C24.2817767,34.8623685 23.1481787,34.6371143 22.1318263,34.186606 C21.1121241,33.7441426 20.2458462,33.1287161 19.5256228,32.3483714 C18.8094194,31.5700379 18.2560199,30.6603061 17.874134,29.6164945 C17.4835385,28.5746942 17.2966154,27.4524459 17.2966154,26.2463977 C17.2966154,25.0443719 17.4835385,23.9181012 17.874134,22.8796528 C18.2560199,21.8365116 18.8094194,20.9261094 19.5256228,20.1430832 C20.2458462,19.3613977 21.1121241,18.754016 22.1318263,18.3021669 C23.1481787,17.855681 24.2817767,17.6317677 25.5346303,17.6317677 C26.3808089,17.6317677 27.2330174,17.7470763 28.0899156,17.9750121 C28.944134,18.2109926 29.7226452,18.5696562 30.4180794,19.0536844 C31.1101638,19.5410647 31.6910323,20.1631951 32.1613548,20.9227574 C32.6316774,21.6769566 32.913737,22.5726099 33.0055236,23.6063655 L28.7056228,23.6063655 C28.6279057,22.8957424 28.2835385,22.3406518 27.6725211,21.9410939 C27.0621737,21.5381839 26.3164913,21.3377346 25.4415037,21.3377346 C24.7467395,21.3377346 24.1564913,21.477848 23.6734392,21.7540525 C23.1830174,22.0329386 22.7850521,22.4050101 22.4761935,22.8628928 C22.1646551,23.3274795 21.9469132,23.8544132 21.8082283,24.4410126 C21.6682035,25.0289527 21.599196,25.6269488 21.599196,26.2463977 C21.599196,26.8658465 21.6682035,27.4692058 21.8082283,28.0517828 C21.9469132,28.6383821 22.1646551,29.1659863 22.4761935,29.6299025 C22.7850521,30.0877852 23.1830174,30.4611976 23.6734392,30.7400836 C24.1564913,31.0189697 24.7467395,31.15372 25.4415037,31.15372 C26.5027444,31.15372 27.3757221,30.927125 28.0403375,30.471924 C28.7163424,30.0160525 29.1116278,29.4100116 29.2349032,28.6558125 L26.2267146,28.6558125 L26.2267146,25.459349 L33.1689975,25.459349 L33.1689975,34.5137609 Z"/>
      <polygon fill="#FFFFFF" points="35.594 17.975 48.766 17.975 48.766 21.426 39.896 21.426 39.896 24.326 47.997 24.326 47.997 27.66 39.896 27.66 39.896 30.809 48.994 30.809 48.994 34.514 35.594 34.514"/>
      <polygon fill="#FFFFFF" points="64.882 21.682 59.951 21.682 59.951 34.514 55.647 34.514 55.647 21.682 50.715 21.682 50.715 17.975 64.882 17.975"/>
      <mask id="b" fill="white">
        <use xlink:href="#a"/>
      </mask>
      <polygon fill="#FFFFFF" points="71.753 34.513 76.062 34.513 76.062 17.975 71.753 17.975" mask="url(#b)"/>
      <polygon fill="#FFFFFF" points="78.998 17.975 83.421 17.975 89.158 28.173 89.204 28.173 89.204 17.975 93.256 17.975 93.256 34.514 88.835 34.514 83.093 24.21 83.046 24.21 83.046 34.514 78.998 34.514" mask="url(#b)"/>
    </g>
  </g>
</svg>
