<svg width="13" height="12" viewBox="0 0 13 12" fill="none" xmlns="http://www.w3.org/2000/svg">
<path d="M11.0527 12H1.05273C0.787599 11.9997 0.533399 11.8943 0.34592 11.7068C0.158441 11.5193 0.0529991 11.2651 0.0527344 11V3.5C0.0529991 3.23486 0.158441 2.98066 0.34592 2.79319C0.533399 2.60571 0.787599 2.50026 1.05273 2.5H3.88623C4.10253 2.50043 4.31294 2.57056 4.48623 2.7L6.21923 4H11.0527C11.3179 4.00026 11.5721 4.10571 11.7595 4.29319C11.947 4.48066 12.0525 4.73486 12.0527 5V11C12.0525 11.2651 11.947 11.5193 11.7595 11.7068C11.5721 11.8943 11.3179 11.9997 11.0527 12ZM3.88573 3.5H1.05173L1.05273 11H11.0527V5H5.88573L3.88573 3.5ZM12.0527 2.5H6.88573L4.88573 1H1.05273V0H4.88623C5.10253 0.000429879 5.31294 0.0705638 5.48623 0.2L7.21923 1.5H12.0527V2.5Z" fill="#DA348F"/>
</svg>
