<svg width="24" height="20" viewBox="0" fill="none" xmlns="http://www.w3.org/2000/svg">
<path d="M16.9602 12.7804L17.9799 7.17222C18.0125 6.99263 18.0053 6.80805 17.9588 6.63155C17.9122 6.45505 17.8275 6.29093 17.7105 6.15078C17.5935 6.01064 17.4472 5.8979 17.2819 5.82054C17.1166 5.74317 16.9363 5.70306 16.7537 5.70305H3.68845L3.30804 3.61075C3.25596 3.32354 3.10465 3.06373 2.88055 2.8767C2.65644 2.68966 2.37376 2.58727 2.08186 2.5874H0.675865C0.5106 2.5874 0.352105 2.65305 0.235245 2.76991C0.118385 2.88677 0.0527344 3.04527 0.0527344 3.21053C0.0527344 3.3758 0.118385 3.53429 0.235245 3.65115C0.352105 3.76801 0.5106 3.83366 0.675865 3.83366H2.08186L4.16173 15.2729C4.18033 15.3741 4.21138 15.4726 4.25418 15.5662C3.94306 15.829 3.71178 16.1738 3.58657 16.5614C3.46135 16.949 3.4472 17.3639 3.54572 17.7591C3.64424 18.1543 3.85149 18.514 4.14399 18.7975C4.43648 19.081 4.80253 19.2768 5.20064 19.3629C5.59875 19.449 6.01301 19.4218 6.39648 19.2845C6.77995 19.1472 7.11729 18.9052 7.37028 18.586C7.62326 18.2668 7.78178 17.8831 7.82786 17.4784C7.87395 17.0737 7.80575 16.6642 7.63101 16.2963H13.0378C12.8353 16.7232 12.777 17.2044 12.8716 17.6673C12.9662 18.1303 13.2086 18.55 13.5623 18.8633C13.9161 19.1765 14.362 19.3664 14.833 19.4044C15.304 19.4423 15.7746 19.3262 16.1739 19.0736C16.5732 18.821 16.8797 18.4455 17.0472 18.0037C17.2147 17.5619 17.2342 17.0776 17.1026 16.6237C16.9711 16.1699 16.6957 15.771 16.3179 15.4872C15.9401 15.2034 15.4804 15.05 15.0079 15.05H5.38791L5.16131 13.8037H15.7341C16.026 13.8039 16.3086 13.7015 16.5327 13.5145C16.7568 13.3274 16.9081 13.0676 16.9602 12.7804ZM6.5956 17.231C6.5956 17.4158 6.54078 17.5965 6.43808 17.7503C6.33537 17.904 6.18939 18.0238 6.0186 18.0945C5.84781 18.1653 5.65987 18.1838 5.47856 18.1477C5.29724 18.1116 5.1307 18.0226 4.99998 17.8919C4.86926 17.7612 4.78024 17.5946 4.74417 17.4133C4.70811 17.232 4.72662 17.0441 4.79736 16.8733C4.86811 16.7025 4.98791 16.5565 5.14162 16.4538C5.29533 16.3511 5.47604 16.2963 5.66091 16.2963C5.90872 16.2965 6.1463 16.3951 6.32153 16.5703C6.49676 16.7456 6.59533 16.9832 6.5956 17.231ZM15.9426 17.231C15.9426 17.4158 15.8877 17.5965 15.785 17.7503C15.6823 17.904 15.5363 18.0238 15.3656 18.0945C15.1948 18.1653 15.0068 18.1838 14.8255 18.1477C14.6442 18.1116 14.4777 18.0226 14.3469 17.8919C14.2162 17.7612 14.1272 17.5946 14.0911 17.4133C14.0551 17.232 14.0736 17.0441 14.1443 16.8733C14.2151 16.7025 14.3349 16.5565 14.4886 16.4538C14.6423 16.3511 14.823 16.2963 15.0079 16.2963C15.2557 16.2965 15.4933 16.3951 15.6685 16.5703C15.8437 16.7456 15.9423 16.9832 15.9426 17.231ZM3.91505 6.94931H16.7537L15.7341 12.5575H4.93471L3.91505 6.94931Z" fill="#DA348F"/>
<circle cx="17.9473" cy="6.0874" r="6" fill="#520B51"/>
<path d="M16.2173 5.8374C16.2173 5.1494 16.3493 4.6074 16.6133 4.2114C16.8813 3.8154 17.3113 3.6174 17.9033 3.6174C18.4953 3.6174 18.9233 3.8154 19.1873 4.2114C19.4553 4.6074 19.5893 5.1494 19.5893 5.8374C19.5893 6.5334 19.4553 7.0794 19.1873 7.4754C18.9233 7.8714 18.4953 8.0694 17.9033 8.0694C17.3113 8.0694 16.8813 7.8714 16.6133 7.4754C16.3493 7.0794 16.2173 6.5334 16.2173 5.8374ZM18.5813 5.8374C18.5813 5.4334 18.5373 5.1234 18.4493 4.9074C18.3613 4.6874 18.1793 4.5774 17.9033 4.5774C17.6273 4.5774 17.4453 4.6874 17.3573 4.9074C17.2693 5.1234 17.2253 5.4334 17.2253 5.8374C17.2253 6.1094 17.2413 6.3354 17.2733 6.5154C17.3053 6.6914 17.3693 6.8354 17.4653 6.9474C17.5653 7.0554 17.7113 7.1094 17.9033 7.1094C18.0953 7.1094 18.2393 7.0554 18.3353 6.9474C18.4353 6.8354 18.5013 6.6914 18.5333 6.5154C18.5653 6.3354 18.5813 6.1094 18.5813 5.8374Z" fill="white"/>
</svg>
