<svg width="19" height="16" viewBox="0 0 19 16" fill="none" xmlns="http://www.w3.org/2000/svg">
<path d="M9.43216 3.66553C9.43216 2.28482 10.5515 1.16553 11.9322 1.16553H17.1405C17.6007 1.16553 17.9738 1.53863 17.9738 1.99887V12.4156C17.9738 12.8758 17.6007 13.2489 17.1405 13.2489H12.163C11.596 13.2489 11.0402 13.3857 10.5579 13.6838C10.0755 13.9819 9.68569 14.4084 9.43216 14.9156M9.43216 3.66553C9.43216 2.28482 8.31288 1.16553 6.93216 1.16553H1.72383C1.26359 1.16553 0.890503 1.53863 0.890503 1.99887V12.4156C0.890503 12.8758 1.26359 13.2489 1.72383 13.2489H6.70133C7.26834 13.2489 7.82415 13.3857 8.30648 13.6838C8.7888 13.9819 9.17859 14.4084 9.43216 14.9156M9.43216 3.66553V14.9156" stroke="#DA348F" stroke-width="1.5" stroke-linecap="round" stroke-linejoin="round"/>
</svg>
